<svg width="16" height="16" xmlns="http://www.w3.org/2000/svg">
 <title>history</title>

 <g>
  <title>Layer 1</title>
  <path fill="#ccc" stroke="null" id="svg_1" d="m13.7112,12.4882q1.01368,-1.27957 1.37096,-2.84994t0.02493,-3.14906t-1.32942,-2.89149q-1.09677,-1.42913 -2.73362,-2.19354t-3.43987,-0.66471t-3.35679,1.0303t-2.48435,2.49266l0,-2.49266l-1.0303,0l0,3.63929l0.51515,0.51515l3.63929,0l0,-1.04692l-2.27663,0q0.69795,-1.2131 1.84457,-2.00244t2.51759,-1.02199t2.72531,0.14956t2.40127,1.29618t1.61192,2.18523t0.53177,2.67546t-0.6564,2.64222t-1.71163,2.10215t-2.45943,1.17986t-2.73362,0.02493t-2.46774,-1.13832t-1.75317,-2.09384l-0.91398,0.48191q0.84751,1.64516 2.38465,2.67546t3.38171,1.20479t3.54789,-0.55669t2.84994,-2.19354zm-3.48973,-0.99707l0.73118,-0.7478l-2.95796,-2.95796l0,-3.93841l-1.0303,0l0,4.15444l0.14956,0.36559l3.10752,3.12414z"/>
 </g>
</svg>