<!-- Generated by IcoMoon.io -->
<svg version="1.1" xmlns="http://www.w3.org/2000/svg" width="44" height="44" viewBox="0 0 44 44">
<title>refresh</title>
<path fill="#ccc" d="M15.312 6.908q-3.52 1.584-5.94 4.488t-3.366 6.578-0.154 7.436 3.146 6.754 5.764 4.664 7.238 1.672q4.004 0 7.568-1.848 3.476-1.76 5.764-4.928 2.376-3.212 2.992-7.172t-0.66-7.744q-1.232-3.696-3.96-6.468-2.86-2.816-6.688-4.048l-0.792 2.596q3.168 1.056 5.478 3.388t3.344 5.434 0.528 6.402-2.442 5.962-4.862 4.158-6.27 1.54q-2.948 0-5.632-1.21t-4.642-3.388-2.838-5.016-0.55-5.742 1.826-5.434 3.916-4.202zM13.772 8.228h-8.272v-2.728h9.636l1.364 1.364v9.636h-2.728v-8.272z"></path>
</svg>
