<svg width="16" height="16" xmlns="http://www.w3.org/2000/svg">
 <title>refresh</title>
 <g>
  <path fill="#ccc" stroke="null" id="svg_1" d="m5.15374,1.58469q-1.49628,0.67333 -2.52498,1.90776t-1.43082,2.79618t-0.06546,3.1609t1.3373,2.87099t2.45016,1.98257t3.07673,0.71073q1.70202,0 3.21701,-0.78555q1.47758,-0.74814 2.45016,-2.0948q1.00999,-1.36536 1.27184,-3.04868t-0.28055,-3.29182q-0.5237,-1.5711 -1.68332,-2.74942q-1.21573,-1.19703 -2.84294,-1.72072l-0.33666,1.10351q1.34665,0.44888 2.32859,1.44017t1.42147,2.30989t0.22444,2.72136t-1.03805,2.53433t-2.06674,1.76748t-2.66525,0.65462q-1.25314,0 -2.39405,-0.51435t-1.97322,-1.44017t-1.20638,-2.1322t-0.23379,-2.44081t0.7762,-2.30989t1.66461,-1.78619l0.5237,-1.64591zm-0.65462,0.56111l-3.51626,0l0,-1.15962l4.09607,0l0.57981,0.57981l0,4.09607l-1.15962,0l0,-3.51626z"/>
 </g>
</svg>