<!-- Generated by IcoMoon.io -->
<svg version="1.1" xmlns="http://www.w3.org/2000/svg" width="28" height="28" viewBox="0 0 28 28"><path fill="#ccc" d="M4 21c0-0.547-0.453-1-1-1s-1 0.453-1 1 0.453 1 1 1 1-0.453 1-1zM26 12c0-1.062-0.953-2-2-2h-9c0-0.984 1.5-2 1.5-4 0-1.5-1.172-2-2.5-2-0.438 0-1.234 1.813-1.406 2.172-0.187 0.344-0.375 0.688-0.578 1.016-0.516 0.828-1.109 1.547-1.75 2.266-1 1.141-2.109 2.547-3.766 2.547h-0.5v10h0.5c2.734 0 5.406 2 8.437 2 1.75 0 2.953-0.734 2.953-2.609 0-0.297-0.031-0.594-0.078-0.875 0.656-0.359 1.016-1.25 1.016-1.969 0-0.375-0.094-0.75-0.281-1.078 0.531-0.5 0.828-1.125 0.828-1.859 0-0.5-0.219-1.234-0.547-1.609h5.172c1.078 0 2-0.922 2-2zM28 11.984c0 2.188-1.813 4.016-4 4.016h-2.641c-0.047 0.656-0.25 1.281-0.578 1.859 0.031 0.219 0.047 0.453 0.047 0.672 0 1-0.328 2-0.938 2.781 0.031 2.953-1.984 4.688-4.875 4.688-1.75 0-3.406-0.484-5.031-1.078-0.953-0.344-2.5-0.922-3.484-0.922h-4.5c-1.109 0-2-0.891-2-2v-10c0-1.109 0.891-2 2-2h4.5c0.75 0 1.813-1.344 2.266-1.859 0.562-0.641 1.094-1.281 1.563-2.016 0.906-1.453 1.578-4.125 3.672-4.125 2.484 0 4.5 1.359 4.5 4 0 0.688-0.109 1.359-0.344 2h5.844c2.156 0 4 1.828 4 3.984z"></path></svg>
