<svg xmlns="http://www.w3.org/2000/svg" viewBox="0 0 36 44"><title>documents-1@1x</title><g id="Layer_2" data-name="Layer 2"><g id="General"><g id="Pages_1_2x.png" data-name="Pages 1@2x.png"><path d="M15,36H7a1,1,0,0,0,0,2h8a1,1,0,0,0,0-2Zm4-6H7a1,1,0,0,0,0,2H19a1,1,0,0,0,0-2ZM7,20h4a1,1,0,0,0,0-2H7a1,1,0,0,0,0,2ZM29,0H14a4,4,0,0,0-4,4V7a1,1,0,0,0,2,0V4a2,2,0,0,1,2-2H26V8a2,2,0,0,0,2,2h6V30a2,2,0,0,1-2,2H29a1,1,0,0,0,0,2h3a4,4,0,0,0,4-4V8ZM28,8V2.15L33.21,8ZM4,10a4,4,0,0,0-4,4V40a4,4,0,0,0,4,4H22a4,4,0,0,0,4-4V18l-7-8ZM24,40a2,2,0,0,1-2,2H4a2,2,0,0,1-2-2V14a2,2,0,0,1,2-2H16v6a2,2,0,0,0,2,2h6ZM18,18V12.15L23.21,18ZM6,25a1,1,0,0,0,1,1H19a1,1,0,0,0,0-2H7A1,1,0,0,0,6,25Z"/></g></g></g></svg>