<svg width="38" height="38" xmlns="http://www.w3.org/2000/svg">

 <g>
  <title>background</title>
  <rect fill="none" id="canvas_background" height="40" width="40" y="-1" x="-1"/>
 </g>
 <g>
  <title>Layer 1</title>
  <g id="svg_5">
   <g id="svg_1">
    <path id="svg_2" d="m16,8.833334l11.994,0c1.109,0 2.006,0.893 2.006,1.995l0,14.01c0,1.102 -0.892,1.995 -1.993,1.995l-25.013,0c-1.094,0 -1.993,-0.891 -1.993,-1.991l0,-18.018c0,-1.101 0.897,-1.991 2.003,-1.991l10.997,0l2,4l-0.001,0zm-0.64,1l-1.96,-4l-10.408,0c-0.548,0 -0.992,0.455 -0.992,0.992l0,18.016c0,0.548 0.446,0.992 0.993,0.992l25.014,0c0.548,0 0.993,-0.445 0.993,-1.001l0,-13.998c0,-0.553 -0.454,-1.001 -1.003,-1.001l-12.637,0z"/>
   </g>
   <g id="svg_4">
    <path id="svg_3" d="m23,15.166667l11.994,0c1.109,0 2.006,0.893 2.006,1.995l0,14.01c0,1.102 -0.892,1.995 -1.993,1.995l-25.013,0c-1.094,0 -1.993,-0.891 -1.993,-1.991l0,-18.018c0,-1.101 0.897,-1.991 2.003,-1.991l10.997,0l2,4l-0.001,0zm-0.64,1l-1.96,-4l-10.408,0c-0.548,0 -0.992,0.455 -0.992,0.992l0,18.016c0,0.548 0.446,0.992 0.993,0.992l25.014,0c0.548,0 0.993,-0.445 0.993,-1.001l0,-13.998c0,-0.553 -0.454,-1.001 -1.003,-1.001l-12.637,0z"/>
   </g>
  </g>
 </g>
</svg>