<?xml version="1.0" encoding="UTF-8" standalone="no"?>
<!DOCTYPE svg PUBLIC "-//W3C//DTD SVG 1.1//EN" "http://www.w3.org/Graphics/SVG/1.1/DTD/svg11.dtd">
<svg width="100%" height="100%" viewBox="0 0 44 40" version="1.1" xmlns="http://www.w3.org/2000/svg" xmlns:xlink="http://www.w3.org/1999/xlink" xml:space="preserve" xmlns:serif="http://www.serif.com/" style="fill-rule:evenodd;clip-rule:evenodd;stroke-linejoin:round;stroke-miterlimit:2;">
    <g transform="matrix(1.00165,0,0,1.00326,-5.28223e-05,-0.0822634)">
        <path d="M31.865,11.893C34.169,11.893 36.063,13.783 36.063,16.08L36.063,35.765C36.063,38.062 34.169,39.952 31.865,39.952L4.23,39.952C1.927,39.952 0.032,38.062 0.032,35.765L0.032,12.143C0.032,9.846 1.927,7.956 4.23,7.956L12.126,7.956C14.185,7.956 15.221,8.971 16.25,9.997C17.195,10.939 18.133,11.893 20.022,11.893L31.865,11.893ZM33.589,35.765C33.589,35.765 33.589,20.267 33.589,20.267L2.506,20.267L2.506,35.765C2.506,36.708 3.284,37.484 4.23,37.484L31.865,37.484C32.811,37.484 33.589,36.708 33.589,35.765ZM33.589,17.799L33.589,16.08C33.589,15.137 32.811,14.362 31.865,14.362L20.022,14.362C16.963,14.362 15.735,12.907 14.585,11.735C13.89,11.028 13.234,10.425 12.126,10.425L4.23,10.425C3.284,10.425 2.506,11.2 2.506,12.143C2.506,12.143 2.506,17.799 2.506,17.799L33.589,17.799Z"/>
        <path d="M39.761,4.019C42.065,4.019 43.959,5.909 43.959,8.206L43.959,27.891C43.959,30.188 42.064,32.078 39.761,32.078L38.774,32.078C38.096,32.078 37.537,31.521 37.537,30.844C37.537,30.167 38.096,29.61 38.774,29.61L39.761,29.61C40.707,29.61 41.485,28.834 41.485,27.891L41.485,8.206C41.485,7.263 40.707,6.488 39.761,6.488L27.918,6.488C24.859,6.488 23.631,5.033 22.48,3.861C21.786,3.154 21.129,2.551 20.022,2.551L12.126,2.551C11.18,2.551 10.402,3.326 10.402,4.269L10.402,5.253C10.402,5.93 9.844,6.488 9.165,6.488C8.486,6.488 7.928,5.93 7.928,5.253L7.928,4.269C7.928,1.972 9.823,0.082 12.126,0.082L20.022,0.082C22.081,0.082 23.117,1.097 24.146,2.123C25.09,3.065 26.029,4.019 27.918,4.019L39.761,4.019Z"/>
    </g>
</svg>
