<svg xmlns="http://www.w3.org/2000/svg" viewBox="0 0 44 40"><title>folders@1x</title><g id="Layer_2" data-name="Layer 2"><g id="General"><g id="Folders_2x.png" data-name="Folders@2x.png"><path d="M32,12H20c-4,0-4-4-8-4H4a4,4,0,0,0-4,4V36a4,4,0,0,0,4,4H32a4,4,0,0,0,4-4V16A4,4,0,0,0,32,12Zm2,24a2,2,0,0,1-2,2H4a2,2,0,0,1-2-2V20H34Zm0-18H2V12a2,2,0,0,1,2-2h8c3,0,3,4,8,4H32a2,2,0,0,1,2,2ZM40,4H28c-4,0-4-4-8-4H12A4,4,0,0,0,8,4V5a1,1,0,0,0,2,0V4a2,2,0,0,1,2-2h8c3,0,3,4,8,4H40a2,2,0,0,1,2,2V28a2,2,0,0,1-2,2H39a1,1,0,0,0,0,2h1a4,4,0,0,0,4-4V8A4,4,0,0,0,40,4Z"/></g></g></g></svg>