<?xml version="1.0" encoding="utf-8"?>
<!-- Svg Vector Icons : http://www.onlinewebfonts.com/icon -->
<!DOCTYPE svg PUBLIC "-//W3C//DTD SVG 1.1//EN" "http://www.w3.org/Graphics/SVG/1.1/DTD/svg11.dtd">
<svg version="1.1" xmlns="http://www.w3.org/2000/svg" xmlns:xlink="http://www.w3.org/1999/xlink" x="0px" y="0px" viewBox="0 0 1000 1000" enable-background="new 0 0 1000 1000" xml:space="preserve">
<metadata> Svg Vector Icons : http://www.onlinewebfonts.com/icon </metadata>
<g><path d="M876.4,10H123.6c-12.9,0-23.3,10.5-23.3,23.3v933.3c0,12.9,10.5,23.3,23.3,23.3h592.9c3,0,6.1-0.6,8.9-1.8c2.9-1.2,5.5-2.9,7.6-5.1l160-159.9c2.1-2.1,3.9-4.8,5.1-7.6c1.2-2.8,1.8-5.9,1.8-8.9V33.4C899.7,20.5,889.3,10,876.4,10z M739.7,910.3V830h80.4L739.7,910.3z M853.1,783.4H716.4c-12.9,0-23.3,10.5-23.3,23.3v136.7H146.9V56.7h706.2L853.1,783.4L853.1,783.4z M248,327.8l38.5-38.5L248,250.7c-9.1-9.1-9.1-23.9,0-33c9.1-9.1,23.9-9.1,33,0l38.5,38.5l38.5-38.5c9.1-9.1,23.9-9.1,33,0c9.1,9.1,9.1,23.9,0,33l-38.5,38.5l38.5,38.5c9.1,9.1,9.1,23.9,0,33c-4.6,4.6-10.5,6.8-16.5,6.8c-6,0-11.9-2.3-16.5-6.8l-38.5-38.5L281,360.7c-4.6,4.6-10.5,6.8-16.5,6.8c-6,0-11.9-2.3-16.5-6.8C238.9,351.6,238.9,336.9,248,327.8z M608.8,327.8l38.5-38.5l-38.5-38.5c-9.1-9.1-9.1-23.9,0-33s23.9-9.1,33,0l38.5,38.5l38.5-38.5c9.1-9.1,23.9-9.1,33,0c9.1,9.1,9.1,23.9,0,33l-38.5,38.5l38.5,38.5c9.1,9.1,9.1,23.9,0,33c-4.6,4.6-10.5,6.8-16.5,6.8c-6,0-11.9-2.3-16.5-6.8l-38.5-38.5l-38.5,38.5c-4.6,4.6-10.5,6.8-16.5,6.8c-6,0-11.9-2.3-16.5-6.8C599.8,351.6,599.8,336.9,608.8,327.8z M500,476.7c142.6,0,203.5,97.5,206,101.6c6.7,11,3.2,25.4-7.8,32.1c-3.8,2.3-8,3.4-12.1,3.4c-7.9,0-15.6-4-20-11.2c-2-3.1-50.6-79.2-166.1-79.2c-115.5,0-164.1,76.1-166.2,79.3c-6.8,10.9-21.2,14.3-32.1,7.6c-10.9-6.8-14.4-21-7.7-32C296.5,574.2,357.4,476.7,500,476.7z"/></g>
</svg>