<svg width="1000" height="1000" xmlns="http://www.w3.org/2000/svg">
 <metadata>Svg Vector Icons : http://www.onlinewebfonts.com/icon</metadata>
  <g transform="rotate(-180 501.28890991210943,500.92471313476557)">
   <path d="m257,864q97,66 215,74.5t223.5,-43.5t171,-150t73,-215.5t-45,-223t-151.5,-171t-217,-72.5q-114,-7 -217,44q-107,51 -173,150t-73,217q-7,114 43,217q52,107 151,173zm35,-676q83,-56 183.5,-63t191,37.5t146.5,128t62.5,184.5t-38.5,191t-129,146t-185,61q-98,6 -186,-37q-91,-44 -147.5,-128.5t-62.5,-185.5q-6,-98 37,-186q44,-91 128,-148zm114,375q0,-26 -18,-44.5t-44,-18.5t-44.5,18.5t-18.5,44t18.5,44t44.5,18.5t44,-18.5t18,-44.5l0,1zm313,0q0,-26 -18.5,-44.5t-44.5,-18.5t-44,18.5t-18,44t18,44t44,18.5t44.5,-18.5t18.5,-44.5l0,1zm-219,-250q-52,-1 -96.5,26t-69.5,72l-54,-30q33,-62 94,-97t131.5,-33.5t129.5,39.5t90,101l-56,27q-24,-48 -69.5,-77t-99.5,-28z" />
  </g>
</svg>