<!-- Generated by IcoMoon.io -->
<svg version="1.1" xmlns="http://www.w3.org/2000/svg" width="44" height="44" viewBox="0 0 44 44">
<title>history</title>
<path d="M37.136 33.88q2.684-3.388 3.63-7.546t0.066-8.338-3.52-7.656q-2.904-3.784-7.238-5.808t-9.108-1.76-8.888 2.728-6.578 6.6v-6.6h-2.728v9.636l1.364 1.364h9.636v-2.772h-6.028q1.848-3.212 4.884-5.302t6.666-2.706 7.216 0.396 6.358 3.432 4.268 5.786 1.408 7.084-1.738 6.996-4.532 5.566-6.512 3.124-7.238 0.066-6.534-3.014-4.642-5.544l-2.42 1.276q2.244 4.356 6.314 7.084t8.954 3.19 9.394-1.474 7.546-5.808zM27.896 31.24l1.936-1.98-7.832-7.832v-10.428h-2.728v11l0.396 0.968z"></path>
</svg>
