<svg width="44" height="40" xmlns="http://www.w3.org/2000/svg"><path d="m30.73379,13.01296l-10.48055,0c-3.49352,0 -3.49352,-3.49352 -6.98703,-3.49352l-6.98703,0a3.49352,3.49352 0 0 0 -3.49352,3.49352l0,20.9611a3.49352,3.49352 0 0 0 3.49352,3.49352l24.45462,0a3.49352,3.49352 0 0 0 3.49352,-3.49352l0,-17.46759a3.49352,3.49352 0 0 0 -3.49352,-3.49352zm1.74676,20.9611a1.74676,1.74676 0 0 1 -1.74676,1.74676l-24.45462,0a1.74676,1.74676 0 0 1 -1.74676,-1.74676l0,-13.97407l27.94814,0l0,13.97407zm0,-15.72083l-27.94814,0l0,-5.24028a1.74676,1.74676 0 0 1 1.74676,-1.74676l6.98703,0c2.62014,0 2.62014,3.49352 6.98703,3.49352l10.48055,0a1.74676,1.74676 0 0 1 1.74676,1.74676l0,1.74676zm5.24028,-12.22731l-10.48055,0c-3.49352,0 -3.49352,-3.49352 -6.98703,-3.49352l-6.98703,0a3.49352,3.49352 0 0 0 -3.49352,3.49352l0,0.87338a0.87338,0.87338 0 0 0 1.74676,0l0,-0.87338a1.74676,1.74676 0 0 1 1.74676,-1.74676l6.98703,0c2.62014,0 2.62014,3.49352 6.98703,3.49352l10.48055,0a1.74676,1.74676 0 0 1 1.74676,1.74676l0,17.46759a1.74676,1.74676 0 0 1 -1.74676,1.74676l-0.87338,0a0.87338,0.87338 0 0 0 0,1.74676l0.87338,0a3.49352,3.49352 0 0 0 3.49352,-3.49352l0,-17.46759a3.49352,3.49352 0 0 0 -3.49352,-3.49352z"/></svg>